<svg xmlns="http://www.w3.org/2000/svg" fill="none" viewBox="0 0 101 101"><path fill="#85EA2D" d="M50.617 98.23C24.36 98.23 3 76.872 3 50.616 3 24.358 24.361 2.999 50.617 2.999S98.234 24.36 98.234 50.616 76.872 98.23 50.617 98.23"/><path fill="#173647" d="M50 5.765c24.982 0 45.233 20.251 45.233 45.234 0 24.98-20.251 45.233-45.234 45.233-24.98 0-45.233-20.252-45.233-45.233C4.766 26.017 25.018 5.764 50 5.764M50 1C22.43 1 0 23.43 0 51s22.43 49.999 50 49.999 50-22.43 50-50S77.57 1 50 1"/><path fill="#173647" d="M31.92 34.388c-.155 1.71.056 3.48-.058 5.21a43 43 0 0 1-.692 5.153c-.481 2.442-2 4.288-4.095 5.826 4.077 2.653 4.537 6.767 4.806 10.94.135 2.25.077 4.518.308 6.748.173 1.73.846 2.173 2.635 2.23.73.019 1.479 0 2.326 0v5.345c-5.287.903-9.651-.596-10.729-5.075a31 31 0 0 1-.653-5c-.116-1.788.075-3.576-.058-5.364-.385-4.903-1.02-6.556-5.71-6.787V47.52a9 9 0 0 1 1.018-.172c2.577-.135 3.672-.924 4.23-3.462.27-1.422.424-2.864.48-4.325.194-2.788.116-5.633.596-8.402.673-3.98 3.135-5.902 7.23-6.133 1.154-.058 2.327 0 3.653 0v5.46c-.557.04-1.038.116-1.538.116-3.326-.116-3.5 1.018-3.75 3.787m6.402 12.65h-.077a3.517 3.517 0 0 0-3.673 3.327c-.096 1.942 1.403 3.596 3.326 3.69h.23c1.905.117 3.538-1.345 3.654-3.248v-.192c.039-1.942-1.518-3.537-3.46-3.576m12.055 0c-1.865-.057-3.423 1.404-3.48 3.25 0 .116 0 .212.02.327 0 2.096 1.422 3.442 3.576 3.442 2.115 0 3.442-1.384 3.442-3.557-.02-2.096-1.424-3.48-3.558-3.461m12.344 0a3.59 3.59 0 0 0-3.653 3.48 3.527 3.527 0 0 0 3.537 3.538h.04c1.768.308 3.556-1.403 3.672-3.46.095-1.904-1.635-3.557-3.596-3.557m16.939.289c-2.23-.096-3.346-.846-3.903-2.962a21.4 21.4 0 0 1-.635-4.134c-.153-2.576-.135-5.172-.307-7.748-.404-6.114-4.826-8.248-11.248-7.191v5.307c1.018 0 1.807 0 2.595.019 1.366.019 2.404.538 2.538 2.058.135 1.384.135 2.787.27 4.191.27 2.789.423 5.614.903 8.364.424 2.268 1.981 3.96 3.922 5.345-3.402 2.288-4.402 5.556-4.575 9.229-.096 2.518-.154 5.056-.288 7.595-.116 2.306-.923 3.056-3.25 3.114-.653.019-1.288.077-2.018.116v5.44c1.365 0 2.614.078 3.864 0 3.883-.23 6.23-2.114 6.999-5.883.327-2.077.519-4.172.576-6.268.134-1.922.116-3.864.308-5.767.288-2.98 1.653-4.211 4.634-4.403a4 4 0 0 0 .827-.192v-6.096c-.5-.057-.847-.114-1.212-.134"/></svg>